<?xml version="1.0" standalone="no"?>
<svg xmlns:xlink="http://www.w3.org/1999/xlink" id="wave" style="transform:rotate(180deg); transition: 0.3s" viewBox="0 0 1440 310" version="1.1" xmlns="http://www.w3.org/2000/svg"><defs><linearGradient id="sw-gradient-0" x1="0" x2="0" y1="1" y2="0"><stop stop-color="rgba(30, 144, 255, 1)" offset="0%"/><stop stop-color="rgba(30, 144, 255, 1)" offset="100%"/></linearGradient></defs><path style="transform:translate(0, 0px); opacity:1" fill="url(#sw-gradient-0)" d="M0,124L80,108.5C160,93,320,62,480,77.5C640,93,800,155,960,160.2C1120,165,1280,114,1440,98.2C1600,83,1760,103,1920,103.3C2080,103,2240,83,2400,67.2C2560,52,2720,41,2880,56.8C3040,72,3200,114,3360,113.7C3520,114,3680,72,3840,67.2C4000,62,4160,93,4320,118.8C4480,145,4640,165,4800,165.3C4960,165,5120,145,5280,113.7C5440,83,5600,41,5760,46.5C5920,52,6080,103,6240,113.7C6400,124,6560,93,6720,113.7C6880,134,7040,207,7200,242.8C7360,279,7520,279,7680,253.2C7840,227,8000,176,8160,129.2C8320,83,8480,41,8640,41.3C8800,41,8960,83,9120,108.5C9280,134,9440,145,9600,160.2C9760,176,9920,196,10080,170.5C10240,145,10400,72,10560,36.2C10720,0,10880,0,11040,0C11200,0,11360,0,11440,0L11520,0L11520,310L11440,310C11360,310,11200,310,11040,310C10880,310,10720,310,10560,310C10400,310,10240,310,10080,310C9920,310,9760,310,9600,310C9440,310,9280,310,9120,310C8960,310,8800,310,8640,310C8480,310,8320,310,8160,310C8000,310,7840,310,7680,310C7520,310,7360,310,7200,310C7040,310,6880,310,6720,310C6560,310,6400,310,6240,310C6080,310,5920,310,5760,310C5600,310,5440,310,5280,310C5120,310,4960,310,4800,310C4640,310,4480,310,4320,310C4160,310,4000,310,3840,310C3680,310,3520,310,3360,310C3200,310,3040,310,2880,310C2720,310,2560,310,2400,310C2240,310,2080,310,1920,310C1760,310,1600,310,1440,310C1280,310,1120,310,960,310C800,310,640,310,480,310C320,310,160,310,80,310L0,310Z"/></svg>